<svg width="37" height="37" viewBox="0 0 37 37" fill="none" xmlns="http://www.w3.org/2000/svg">
<path d="M23.125 3.0835C17.9185 3.08569 13.4564 6.80604 12.5179 11.9273C16.9995 9.47489 22.6205 11.1198 25.0729 15.6013C26.5869 18.368 26.5869 21.7155 25.0729 24.4822C30.9332 23.4087 34.8137 17.7877 33.7402 11.9274C32.8014 6.80294 28.3347 3.08152 23.125 3.0835Z" fill="#C3E8F1"/>
<path d="M10.7917 33.9167C15.0489 33.9167 18.5 30.4655 18.5 26.2083C18.5 21.9511 15.0489 18.5 10.7917 18.5C6.53447 18.5 3.08333 21.9511 3.08333 26.2083C3.08333 30.4655 6.53447 33.9167 10.7917 33.9167Z" fill="#027794"/>
<path d="M16.9583 10.7915C12.2048 10.792 8.22539 14.3953 7.75458 19.1255C11.6639 17.4458 16.1947 19.2534 17.8744 23.1627C18.7086 25.1044 18.7086 27.3036 17.8744 29.2453C22.9577 28.7398 26.6688 24.2092 26.1633 19.1259C25.6929 14.3949 21.7126 10.7911 16.9583 10.7915Z" fill="#52A0B4"/>
</svg>
