<svg xmlns="http://www.w3.org/2000/svg" x="0px" y="0px" width="100" height="100" viewBox="0 0 48 48">
<linearGradient id="C9TYDZarys49lHDy~k4THa_eofQ1g5BaAx6_gr1" x1="12.373" x2="34.611" y1="-154.373" y2="-176.611" gradientTransform="matrix(1 0 0 -1 0 -154)" gradientUnits="userSpaceOnUse"><stop offset="0" stop-color="#0077d2"></stop><stop offset="1" stop-color="#0b59a2"></stop></linearGradient><path fill="url(#C9TYDZarys49lHDy~k4THa_eofQ1g5BaAx6_gr1)" d="M42,15H6c-1.65,0-3-1.35-3-3v0c0-1.65,1.35-3,3-3h36c1.65,0,3,1.35,3,3v0	C45,13.65,43.65,15,42,15z"></path><linearGradient id="C9TYDZarys49lHDy~k4THb_eofQ1g5BaAx6_gr2" x1="12.373" x2="34.611" y1="-166.373" y2="-188.611" gradientTransform="matrix(1 0 0 -1 0 -154)" gradientUnits="userSpaceOnUse"><stop offset="0" stop-color="#0077d2"></stop><stop offset="1" stop-color="#0b59a2"></stop></linearGradient><path fill="url(#C9TYDZarys49lHDy~k4THb_eofQ1g5BaAx6_gr2)" d="M42,27H6c-1.65,0-3-1.35-3-3v0c0-1.65,1.35-3,3-3h36c1.65,0,3,1.35,3,3v0	C45,25.65,43.65,27,42,27z"></path><linearGradient id="C9TYDZarys49lHDy~k4THc_eofQ1g5BaAx6_gr3" x1="12.373" x2="34.611" y1="-178.373" y2="-200.611" gradientTransform="matrix(1 0 0 -1 0 -154)" gradientUnits="userSpaceOnUse"><stop offset="0" stop-color="#0077d2"></stop><stop offset="1" stop-color="#0b59a2"></stop></linearGradient><path fill="url(#C9TYDZarys49lHDy~k4THc_eofQ1g5BaAx6_gr3)" d="M42,39H6c-1.65,0-3-1.35-3-3v0c0-1.65,1.35-3,3-3h36c1.65,0,3,1.35,3,3v0	C45,37.65,43.65,39,42,39z"></path>
</svg>