<svg width="37" height="37" viewBox="0 0 37 37" fill="none" xmlns="http://www.w3.org/2000/svg">
<path d="M9.24999 25.4377C8.1828 25.4377 7.13957 25.1212 6.25223 24.5283C5.36489 23.9354 4.67329 23.0927 4.26489 22.1067C3.85649 21.1208 3.74964 20.0358 3.95784 18.9892C4.16604 17.9425 4.67994 16.981 5.43456 16.2264C6.18918 15.4718 7.15063 14.9579 8.19732 14.7497C9.24401 14.5415 10.3289 14.6483 11.3149 15.0567C12.3008 15.4651 13.1436 16.1567 13.7365 17.0441C14.3294 17.9314 14.6458 18.9746 14.6458 20.0418C14.6441 21.4724 14.0751 22.8438 13.0635 23.8554C12.052 24.8669 10.6805 25.4359 9.24999 25.4377Z" fill="#0388A9"/>
<path d="M13.3204 23.5442C12.8208 24.1373 12.1977 24.614 11.4946 24.9411C10.7915 25.2682 10.0254 25.4376 9.24999 25.4376C8.47454 25.4376 7.70846 25.2682 7.00537 24.9411C6.30227 24.614 5.67914 24.1373 5.17959 23.5442C4.06957 24.2324 3.15312 25.1919 2.51664 26.3324C1.88015 27.4729 1.54462 28.7566 1.54166 30.0627C1.54166 30.4715 1.70408 30.8637 1.9932 31.1528C2.28232 31.4419 2.67445 31.6043 3.08332 31.6043H15.4167C15.8255 31.6043 16.2177 31.4419 16.5068 31.1528C16.7959 30.8637 16.9583 30.4715 16.9583 30.0627C16.9554 28.7566 16.6198 27.4729 15.9833 26.3324C15.3469 25.1919 14.4304 24.2324 13.3204 23.5442ZM27.75 25.4377C26.6828 25.4377 25.6396 25.1212 24.7522 24.5283C23.8649 23.9354 23.1733 23.0927 22.7649 22.1067C22.3565 21.1208 22.2496 20.0358 22.4578 18.9892C22.666 17.9425 23.1799 16.981 23.9346 16.2264C24.6892 15.4718 25.6506 14.9579 26.6973 14.7497C27.744 14.5415 28.8289 14.6483 29.8149 15.0567C30.8008 15.4651 31.6436 16.1567 32.2365 17.0441C32.8294 17.9314 33.1458 18.9746 33.1458 20.0418C33.1441 21.4724 32.5751 22.8438 31.5635 23.8554C30.552 24.8669 29.1805 25.4359 27.75 25.4377Z" fill="#C3E8F1"/>
<path d="M31.8204 23.5439C31.3208 24.137 30.6977 24.6138 29.9946 24.9409C29.2915 25.2679 28.5254 25.4374 27.75 25.4374C26.9745 25.4374 26.2085 25.2679 25.5054 24.9409C24.8023 24.6138 24.1791 24.137 23.6796 23.5439C22.5696 24.2321 21.6531 25.1917 21.0166 26.3322C20.3802 27.4726 20.0446 28.7564 20.0417 30.0624C20.0417 30.4713 20.2041 30.8634 20.4932 31.1526C20.7823 31.4417 21.1744 31.6041 21.5833 31.6041H33.9167C34.3255 31.6041 34.7177 31.4417 35.0068 31.1526C35.2959 30.8634 35.4583 30.4713 35.4583 30.0624C35.4554 28.7564 35.1198 27.4726 34.4833 26.3322C33.8469 25.1917 32.9304 24.2321 31.8204 23.5439Z" fill="#027794"/>
<path d="M26.5275 8.93085L23.4441 5.84751C23.1542 5.56275 22.7635 5.40402 22.3571 5.40586C21.9507 5.4077 21.5614 5.56996 21.274 5.85734C20.9867 6.14472 20.8244 6.53395 20.8226 6.94036C20.8207 7.34677 20.9794 7.73746 21.2642 8.02743L21.7159 8.47914H15.2842L15.7359 8.02743C16.022 7.73772 16.1818 7.34659 16.1805 6.93945C16.1792 6.5323 16.0169 6.1422 15.729 5.8543C15.4411 5.56641 15.051 5.40411 14.6438 5.40284C14.2367 5.40157 13.8456 5.56142 13.5559 5.84751L10.4725 8.93085C10.3294 9.07396 10.2158 9.24388 10.1383 9.43091C10.0608 9.61794 10.0209 9.8184 10.0209 10.0208C10.0209 10.2233 10.0608 10.4238 10.1383 10.6108C10.2158 10.7978 10.3294 10.9677 10.4725 11.1109L13.5559 14.1942C13.8456 14.4803 14.2367 14.6401 14.6439 14.6388C15.051 14.6375 15.4411 14.4752 15.729 14.1873C16.0169 13.8994 16.1792 13.5093 16.1805 13.1021C16.1817 12.695 16.0219 12.3039 15.7358 12.0142L15.2841 11.5625H21.7157L21.264 12.0142C20.9749 12.3033 20.8126 12.6954 20.8126 13.1042C20.8126 13.513 20.975 13.9051 21.2641 14.1942C21.5532 14.4833 21.9453 14.6457 22.3541 14.6456C22.763 14.6456 23.1551 14.4832 23.4441 14.1941L26.5275 11.1108C26.6706 10.9676 26.7842 10.7977 26.8617 10.6107C26.9392 10.4237 26.9791 10.2232 26.9791 10.0208C26.9791 9.81837 26.9392 9.61791 26.8617 9.43089C26.7842 9.24388 26.6706 9.07396 26.5275 8.93085Z" fill="#027794"/>
</svg>
