<svg width="37" height="37" viewBox="0 0 37 37" fill="none" xmlns="http://www.w3.org/2000/svg">
<path d="M27.3439 22.5419L23.6038 25.9808C21.6807 27.6573 19.4212 28.903 16.977 29.6344L17.9693 34.2643C18.02 34.5007 18.1256 34.7219 18.2775 34.9099C18.4295 35.098 18.6235 35.2477 18.844 35.347C19.0644 35.4463 19.3051 35.4923 19.5467 35.4814C19.7882 35.4705 20.0238 35.403 20.2344 35.2843L26.255 31.8886C27.1024 31.3737 27.7643 30.603 28.1453 29.6875C28.5263 28.7721 28.6067 27.7594 28.3748 26.7953L27.3439 22.5419ZM11.2012 13.5293L14.4212 9.70617L10.4055 8.73727C9.42922 8.39684 8.36273 8.4212 7.40302 8.80584C6.44331 9.19049 5.65521 9.90944 5.1843 10.8299L1.79234 16.8422C1.67349 17.0528 1.60585 17.2884 1.59489 17.53C1.58393 17.7716 1.62996 18.0123 1.72925 18.2328C1.82855 18.4533 1.97832 18.6474 2.16647 18.7993C2.35462 18.9512 2.57587 19.0567 2.81234 19.1073L7.54949 20.1227C8.33484 17.7121 9.57436 15.474 11.2012 13.5293ZM25.7978 13.5916C26.2552 13.5916 26.7023 13.4559 27.0826 13.2018C27.4629 12.9477 27.7593 12.5866 27.9343 12.164C28.1093 11.7415 28.1551 11.2765 28.0659 10.8279C27.9767 10.3793 27.7564 9.9673 27.433 9.64389C27.1096 9.32048 26.6976 9.10024 26.249 9.01101C25.8004 8.92178 25.3354 8.96758 24.9129 9.1426C24.4903 9.31763 24.1292 9.61403 23.8751 9.99432C23.621 10.3746 23.4853 10.8217 23.4853 11.2791C23.4856 11.8923 23.7293 12.4804 24.1629 12.914C24.5965 13.3476 25.1846 13.5913 25.7978 13.5916Z" fill="#027794"/>
<path d="M34.8433 3.17879C34.7738 2.91474 34.6354 2.67387 34.4423 2.48079C34.2492 2.2877 34.0083 2.14931 33.7443 2.07975C30.5818 1.25768 27.2514 1.34583 24.1368 2.33405C21.0222 3.32226 18.2501 5.17033 16.1401 7.6653L11.2012 13.5294C8.7339 16.4721 7.1687 20.0647 6.69361 23.8754C6.66314 24.1096 6.68687 24.3476 6.76296 24.5712C6.83904 24.7948 6.96546 24.9979 7.13246 25.1649L11.9118 29.9442C12.0549 30.0874 12.2248 30.201 12.4118 30.2785C12.5988 30.356 12.7993 30.3959 13.0017 30.3959C13.0462 30.3959 13.0906 30.3936 13.1357 30.3899C17.005 30.0702 20.6716 28.5258 23.6037 25.9809L29.2509 20.7883C31.7547 18.6838 33.6096 15.9116 34.5996 12.7942C35.5896 9.67677 35.6741 6.34235 34.8433 3.17879ZM25.7978 13.5915C25.3404 13.5915 24.8933 13.4559 24.513 13.2018C24.1327 12.9477 23.8363 12.5866 23.6613 12.164C23.4863 11.7414 23.4405 11.2765 23.5297 10.8279C23.619 10.3793 23.8392 9.96727 24.1626 9.64386C24.486 9.32045 24.8981 9.10021 25.3466 9.01098C25.7952 8.92175 26.2602 8.96755 26.6828 9.14258C27.1053 9.3176 27.4665 9.614 27.7206 9.99429C27.9747 10.3746 28.1103 10.8217 28.1103 11.279C28.1101 11.8923 27.8664 12.4804 27.4327 12.914C26.9991 13.3476 26.411 13.5913 25.7978 13.5915Z" fill="#C3E8F1"/>
</svg>
